<svg xmlns="http://www.w3.org/2000/svg" viewBox="0 0 1479 544"><path d="M265.4 393.9l-77.4-.8-.5 42.2c0 18.4-16.7 33.2-37.3 33.2-20.6-.1-49.1-15.1-49.1-33.4l.1-148.9 164.1 1.7V95c0-43.7-42.3-79.3-94.5-79.4l-57.8-.1c-52.2-.1-94.5 35.3-94.5 79l.1 356.9c0 43.7 42.3 79.3 94.5 79.4l57.8.1c52.2.1 94.5-35.3 94.5-79v-58zM141.9 67.8c20.6 0 37.4 15 37.4 33.3v123.5l-74.7-.2V100.9c0-18.3 16.7-33.1 37.3-33.1zm260.6 326.5h17.9L469 520.7h-23.9l-11.6-33h-45.4l-11.8 33H354l48.5-126.4zm25.2 76.7a964.45 964.45 0 0 1-16.6-51.7c-3.5 11.2-9.3 30.2-17 51.7h33.6zm102.9-21.2c-3.7-4.3-7.1-7.7-13.3-7.7-7.7 0-19.6 2.6-19.6 31.6 0 29.1 11.8 32.9 20.5 32.9 3.5 0 7.8-.9 11.6-1.9 2.2-.6 4.5-1.1 6.5-1.9l5.2 13.6c-2.1 1.1-4.5 2.1-7.3 2.8-4.7 1.5-11 2.8-19 2.8-28.8 0-40.7-18.1-40.7-45.6 0-32.9 18.7-51 42.8-51 11.8 0 19.6 4.7 25.4 12.7l-12.1 11.7zm47.6-10.3c7.3-9.5 17.7-13.3 28.8-13.3 8.4 0 14.7 2.2 19.4 6.9 5.2 5.2 7.8 13.6 7.8 25.2v62.4h-21.5v-60.9c0-10.5-3.4-16.8-12.1-16.8-10.5 0-21.5 10.8-22.4 27.8v49.8h-21.5V389.1l21.5-3.7v54.1zm118.8-14c22.2 0 31.2 11.6 31.2 26.5 0 18.1-20.5 33-53.4 33.6 1.5 11.4 6 20.9 20.5 20.9 5.4 0 12.1-1.5 17.4-3.2 3.2-.9 6.2-2.1 9.1-3.4l5.6 13.4c-3.2 1.7-6.7 3-10.5 4.3-6.5 2.2-15.1 4.3-24.6 4.3-28.9 0-40.3-18.1-40.3-45.6 0-33.3 19.6-50.8 45-50.8zM674.2 472c23.3-.6 32.5-11.4 32.5-20 0-7.3-4.7-11.8-11.4-11.8-16.4 0-20.5 16.6-21.1 31.8zm61.4-44.3h16.8l3.7-21.8 17.7-3.9v25.8h23l-2.6 15.3h-20.4V498c0 6.5 4.1 7.7 8.4 7.7 3.5 0 7.1-.6 9.9-1.3 1.7-.4 3.2-.7 4.7-1.3l3.5 14.2c-2.1.9-4.3 1.7-6.7 2.2-4.3 1.3-10.3 2.1-17.2 2.1-14 0-24.1-5.6-24.1-21.1V443h-16.8v-15.3zm117.3-2.2c22.2 0 31.2 11.6 31.2 26.5 0 18.1-20.5 33-53.4 33.6 1.5 11.4 6 20.9 20.5 20.9 5.4 0 12.1-1.5 17.4-3.2 3.2-.9 6.2-2.1 9.1-3.4l5.6 13.4c-3.2 1.7-6.7 3-10.5 4.3-6.5 2.2-15.1 4.3-24.6 4.3-28.9 0-40.3-18.1-40.3-45.6 0-33.3 19.6-50.8 45-50.8zM830.1 472c23.3-.6 32.5-11.4 32.5-20 0-7.3-4.7-11.8-11.4-11.8-16.4 0-20.5 16.6-21.1 31.8zm65.2 48.7v-12.9l41.1-65c-6.3.4-12.5.6-18.7.6h-18.3l-2.6-15.7h64.6v12.9l-40.3 65a220.61 220.61 0 0 1 16.4-.6h25.6v15.7h-67.8zm155.4 0h-21.5v-47c0-14.9-2.4-24.8-4.7-31-1.3-3.5-2.8-6.5-4.5-8.8l17-6.7c1.3 1.3 2.4 3 3.7 5 2.1 3.5 4.1 8.4 5.4 14.9 6.2-14.7 18.7-20.9 31.2-20.9 12.7 0 19 6.9 22.6 17.2 6.7-12.1 17.9-17.2 29.7-17.2 8 0 14 2.2 18.3 6.9 4.9 5 7.3 13.4 7.3 25.2v62.4h-21.5v-60.9c0-10.5-2.6-16.8-10.6-16.8-9 0-19.6 10.3-20.2 27.4v50.2h-21.5v-60.9c0-10.5-2.6-16.8-10.6-16.8-9.7 0-21.1 12.5-20.2 32.1v45.7zm202.9-45c0 14.9 2.2 24.8 4.5 31 1.3 3.7 3 6.7 4.7 8.8l-17 6.7c-1.5-1.7-3-3.5-4.3-5.8-2.2-3.7-4.7-9.5-5.2-17-4.3 14.9-13.1 22.4-28.9 22.4-23.3 0-34.4-18.3-34.4-46.3 0-28.4 18.3-49.3 44.6-49.3 7.5 0 16.2 1.5 23.5 2.8 4.1.7 8.2 1.7 12.5 2.6v44.1zm-21.4-5.6v-26.7c-2.4-.6-8.4-2.1-12.1-2.1-18.5 0-23.9 13.6-23.9 32.3 0 17.2 1.3 33 14.7 33 12.1.1 21.3-18.2 21.3-36.5zm45.5 30.2V389.1l21.5-3.9v113.1c0 5.8 2.2 7.7 6.5 7.7 2.4 0 4.9-.2 6.9-.7l3-.7 2.6 13.6-5.4 1.7c-3.5.9-8.4 1.7-14.4 1.7-14.1-.2-20.7-8.7-20.7-21.3zM1356 399c0 7.5-4.3 13.3-13.1 13.3-8 0-12.5-5.8-12.5-12.7 0-7.7 4.3-13.4 13.1-13.4 8-.1 12.5 5.3 12.5 12.8zm-23.6 101.3v-72.6h21.5v70.6c0 5.8 1.7 7.3 5.2 7.3.9 0 2.2 0 3.2-.2.6 0 1.1 0 1.7-.2l2.2 13.6c-.9.6-2.1.9-3.4 1.3-2.2.7-5.6 1.3-10.1 1.3-13.2 0-20.3-8.5-20.3-21.1zm71.9 20.4h-21.5v-47c0-14.9-2.4-24.8-4.7-31-1.3-3.5-2.8-6.5-4.5-8.8l17-6.7c1.3 1.3 2.4 3 3.7 5 2.1 3.5 4.1 8.4 5.4 14.9 6.5-14.7 19.8-20.9 33.2-20.9 8.4 0 14.7 2.2 19.4 6.9 5.2 5.2 7.8 13.6 7.8 25.2v62.4h-21.5v-60.3c0-10.5-3.4-17.2-12.1-17.2-11 0-23.3 12.3-22.4 31.9v45.6z" fill="#077bc2"/><path d="M324.3 29.2H410c42 0 72.2 15.6 72.2 64.4 0 27.4-13.2 48.4-38.4 55.5v.7c28.1 3.9 46.2 25.2 46.2 59 0 39.8-19.6 74.3-79.3 74.3h-86.4V29.2zm51.2 104.2h14.6c28.1 0 40.9-9.6 40.9-33.4 0-24.2-11.7-33.1-37-33.1h-18.5v66.5zm0 112h19.9c24.5 0 41.3-8.9 41.3-38.4s-16.7-38.1-39.1-38.1h-22v76.5zm243.3 15.3h-.7c-10.3 18.8-28.1 27.4-48.7 27.4-30.6 0-48.7-16.7-48.7-54.4V91.8h49.1v131.9c0 19.2 6.4 26.7 21 26.7 16.7 0 26-10.3 26-31.7v-127h49.1V283H619v-22.3zm79.7 48.4c4.3.7 8.5 1.1 12.8 1.1 18.1 0 24.9-10 26.3-27L683.9 91.8h51.2l28.5 132.3h.7l24.9-132.3h49.1L792 270.3c-17.1 66.1-28.1 75.4-73.6 75.4h-19.9v-36.6zm267.8-194.2c0-37-7.5-53-30.6-53-26 0-32 26-32 97.8 0 76.8 10.7 90.7 32.7 90.7 18.5 0 32-9.6 32-64.4h51.2c0 54.8-13.5 102.1-80.7 102.1-76.8 0-86.4-54.8-86.4-131.9 0-77.2 9.6-131.9 86.4-131.9 73.3 0 78.6 53.7 78.6 90.7h-51.2zm82.9-85.7h49.1v253.9h-49.1V29.2zm181.7 231.5h-.7c-10.3 18.8-28.1 27.4-48.7 27.4-30.6 0-48.7-16.7-48.7-54.4V91.8h49.1v131.9c0 19.2 6.4 26.7 21 26.7 16.7 0 26-10.3 26-31.7v-127h49.1V283h-46.9v-22.3zm79.7-231.5h49.1v80.4h.7c10.3-15.3 22.8-22.8 41.3-22.8 40.2 0 58.7 29.5 58.7 100.6S1441.9 288 1401.7 288c-19.2 0-32.7-7.5-43.4-25.3h-.7V283h-46.9V29.2zm75.1 221.2c21.3 0 25.6-21.3 25.6-62.9s-4.3-62.9-25.6-62.9c-21.7 0-26 21.3-26 62.9s4.3 62.9 26 62.9z" fill="#3d3d3d"/></svg>
