<?xml version="1.0" encoding="utf-8"?>
<!-- Generator: Adobe Illustrator 25.2.1, SVG Export Plug-In . SVG Version: 6.00 Build 0)  -->
<svg version="1.1" id="Calque_1" xmlns="http://www.w3.org/2000/svg" xmlns:xlink="http://www.w3.org/1999/xlink" x="0px" y="0px"
	 viewBox="0 0 888 335.1" style="enable-background:new 0 0 888 335.1;" xml:space="preserve">
<style type="text/css">
	.st0{fill:#FFFFFF;}
</style>
<g>
	<path class="st0" d="M229.7,209.3h-13.3V72.6c0-2.3-1.9-4.2-4.2-4.2l-70.7,21.2c-3.2,0.8-4.2,3.8-4.2,6.1v40.6
		c0,2.3,1.9,4.2,4.2,4.2l12.6-3.8v72.5h-13.3c-2.3,0-4.2,1.9-4.2,4.2V256c0,2.3,1.9,4.2,4.2,4.2h88.9c2.3,0,4.2-1.9,4.2-4.2v-42.5
		C233.9,211.2,232,209.3,229.7,209.3z"/>
	<path class="st0" d="M683.5,260.7c16.4,1.6,34-3.4,49.4-8.6c36.3-12.3,70.6-31.9,101.2-54.9c13.3-10,26.4-20.8,37.3-33.4
		c8.1-9.4,16-20.5,16.6-33.3c0.7-14.2-21.3-14.1-22,0c0,0.1,0,0.2,0,0.3c0,0.1,0,0.1-0.1,0.2c-0.2,1.1-0.6,2.1-0.9,3.2
		c0,0.1-0.1,0.2-0.1,0.3c-0.2,0.3-0.3,0.7-0.5,1c-0.7,1.4-1.5,2.8-2.3,4.1c-0.8,1.3-1.6,2.5-2.4,3.7c-0.4,0.6-0.9,1.3-1.4,1.9
		c-0.1,0.1-0.2,0.2-0.3,0.4c-2.4,3-5,5.8-7.6,8.6c-12.9,13.5-26,23.5-40.9,33.7c-17,11.7-35,22.1-53.6,31
		c-15.9,7.6-32.7,14.3-51,18.1c-1.9,0.4-3.8,0.7-5.6,1c-0.2,0-0.9,0.1-1.4,0.2c-0.7,0.1-1.3,0.2-2,0.2c-3.8,0.4-7.6,0.5-11.4,0.3
		c-0.2,0-1.3-0.1-1.7-0.2c-0.5-0.1-1.1-0.2-1.6-0.3c-1.4-0.3-2.8-0.7-4.2-1.2c1.4,0.5-2.2-1.1-2.9-1.5c-0.3-0.2-0.6-0.3-0.8-0.5
		c0.2,0.1-1.3-1-1.7-1.4c-0.4-0.4-2.1-2.3-2.3-2.5c-0.5-0.7-0.9-1.4-1.3-2.1c15.4-10.7,29.6-23.3,42.6-36.7
		c15-15.6,28.8-33.1,38.6-52.4c9.6-18.8,16.8-44.8,1.2-62.6c-16-18.3-42.6-5.2-57.3,7.2c-14.8,12.4-25.3,29.3-33.3,46.6
		c-7.7,16.7-13.6,34.4-16.6,52.6c-1.9,11.5-3,24-1.1,35.9c-6.6,3.9-13.4,7.5-20.3,10.6c-7.9,3.5-18.2,6.6-27.6,8
		c0.6-0.1-2.2,0.2-2.2,0.2c-1.1,0.1-2.3,0.2-3.4,0.2c-2.1,0.1-4.3,0.1-6.5,0c-0.6,0-1.2-0.1-1.8-0.1c0.6,0-1.3-0.2-1.7-0.3
		c-1.7-0.3-3.3-0.8-4.9-1.4c1,0.3-2.3-1.1-3-1.5c-0.3-0.2-0.6-0.4-0.9-0.6c-0.3-0.2-0.8-0.6-1.1-0.8c-0.9-0.8-1.8-1.7-2.6-2.7
		c-0.2-0.3-0.4-0.5-0.5-0.7c-0.5-0.8-1-1.6-1.5-2.4c17.2-11.7,33-25.4,46.9-40.9c17.1-19,32.5-41.1,42-65
		c7.7-19.4,5.5-44.3-16.2-52.7c-9.7-3.8-20.7-0.7-29.8,3.2c-12.3,5.3-22.7,15.6-31.1,25.8c-10.9,13.3-18.5,28.9-24.9,44.7
		c-6.8,17-11.4,35-13,53.3c-0.6,7-0.6,14.5,0.4,21.8c-8.3,4.9-16.8,9.3-25.6,13.1c-0.5,0.2-2.9,1.2-3.6,1.5
		c-1.1,0.4-2.2,0.9-3.4,1.3c-1,0.4-2,0.7-3,1c-2.1,0.6-4.2,1.2-6.3,1.7c-1,0.2-2,0.4-3,0.6c-0.2,0-1.3,0.2-1.8,0.3
		c-3.3,0.4-6.7,0.4-10.1,0.1c-0.1,0-0.2,0-0.3,0c-0.7-0.1-1.4-0.3-2.2-0.5c-1-0.2-1.9-0.5-2.8-0.9c0.3,0-2.2-1.1-2.8-1.4
		c-0.5-0.3-1.1-0.7-1.6-1c-0.1-0.1-0.2-0.2-0.4-0.3c-1-0.9-1.9-1.8-2.7-2.8c-0.1-0.1-0.1-0.1-0.2-0.2c-0.3-0.4-0.6-0.8-0.9-1.2
		c-0.8-1.1-1.4-2.3-2-3.5c-0.1-0.2-0.2-0.5-0.3-0.7c-0.2-0.4-0.6-1.5-0.8-1.9c-0.1-0.2-0.1-0.4-0.2-0.6c28.3-17.8,52.4-41.9,70-70.8
		c12-19.7,26.3-46.6,14.4-69.5c-10.8-20.7-37.2-15.9-53.3-5.5c-29.8,19.4-44.7,54.3-52,87.7c-3.1,13.9-5.6,31.2-4,47.3
		c-5.1,2.7-10.3,5.1-15.5,7.4c-5.5,2.4-6.7,10.3-3.9,15c3.3,5.6,9.6,6.3,15,3.9c3.3-1.5,6.6-3,9.9-4.6c2.6,5.9,6.3,11.2,11.2,15.6
		c14.5,13.2,35,12.4,52.6,7.1c12.7-3.9,25.1-9.9,36.8-16.7c0.5,0.8,1,1.6,1.5,2.3c10.3,14.9,27.5,19.5,44.9,18
		c20.5-1.7,40-9.7,57.7-19.8C656.9,252.5,668.7,259.2,683.5,260.7z M462.1,183.4c0.1-0.7,0.2-1.5,0.3-2.2c0.3-1.9,0.6-3.7,1-5.5
		c0.8-4,1.7-8,2.7-12c1.9-7.5,4.3-14.8,7-22c0.5-1.4,1.1-2.8,1.7-4.2c0,0,1.3-3,1.6-3.6c1.5-3.2,3-6.3,4.7-9.4
		c1.4-2.6,3-5.1,4.6-7.5c0.4-0.7,0.9-1.3,1.4-1.9c-0.1,0.2,1.8-2.2,1.7-2.1c1.6-1.9,3.3-3.8,5-5.6c7.6-8.1,16.5-15,26.5-17.1
		c0.1,0,0.2,0,0.2-0.1c0.2,0,0.4,0,0.8,0c0.9-0.1,1.9,0,2.8,0c0,0,0,0,0,0c0.1,0,0.3,0.1,0.5,0.1c0.5,0.1,0.9,0.2,1.4,0.4
		c-0.7-0.2,0.9,0.4,1.3,0.7c0.1,0,0.1,0.1,0.2,0.1c0,0,0.1,0.1,0.1,0.1c0.2,0.2,0.8,0.8,1,1.1c0.2,0.4,0.5,0.7,0.7,1.1
		c0.1,0.2,0.6,1.3,0.7,1.7c0.3,0.9,0.5,1.9,0.7,2.8c0,0.1,0,0.1,0,0.2c0,0.2,0,0.5,0,0.9c0.1,1.1,0,2.2,0,3.3
		c-0.1,4.7-1.7,9.9-3.7,15.3c-4.7,12.6-12.6,24.7-20.3,35.7c-7.1,10.1-15.4,19.4-24.4,27.9c-6.7,6.4-14,12.1-21.6,17.4
		c0.1-4.8,0.5-9.7,1-14.4C462,184.5,462,183.8,462.1,183.4z M467.7,230.4C467.6,230.2,467.6,230.2,467.7,230.4L467.7,230.4z
		 M559.9,194.9c0.1-0.8,0.2-1.5,0.3-2.3c0,0.2,0.4-2.6,0.4-2.9c1.4-8.8,3.6-17.5,6.3-26c5-16,10.9-29.4,20.7-44.2
		c0.9-1.4,1.9-2.8,2.9-4.2c0.1-0.1,0.2-0.2,0.2-0.3c1-1.2,2-2.4,3-3.6c4.4-5.2,9.4-10.1,14.9-14.1c4.2-3,8.1-5,12.1-6.2
		c1-0.3,2.1-0.5,3.1-0.8c0.1,0,0.2,0,0.3-0.1c0.2,0,0.4,0,0.7,0c0.9-0.1,1.9,0,2.8,0c0.2,0,0.3,0,0.4,0c0.2,0.1,0.5,0.1,1,0.3
		c0.3,0.1,1,0.3,1.4,0.5c0.4,0.2,0.8,0.5,1.2,0.7c0.1,0.1,0.2,0.2,0.3,0.3c0.2,0.2,0.7,0.8,0.9,1.1c0.3,0.4,0.5,0.9,0.8,1.4
		c0.1,0.1,0.1,0.2,0.1,0.3c0,0.1,0.1,0.2,0.1,0.4c0.3,0.9,0.5,1.8,0.7,2.7c0,0.3,0.1,0.4,0.1,0.6c0,0.5,0.1,1,0.1,1.5
		c0.5,9.8-4.7,20.3-10,30c-16.3,29.8-39.1,55.1-65.6,74.8c0-1.3,0.1-2.5,0.1-3.8C559.5,198.9,559.7,196.9,559.9,194.9z M663,199.9
		c0.1-2,0.3-4,0.5-6c0-0.2,0.2-1.6,0.2-1.9c0.1-0.8,0.2-1.5,0.3-2.3c0.7-4.5,1.7-9,2.8-13.5c2.1-8.8,4.9-17.4,8.2-25.8
		c0.4-1,0.8-2,1.2-3c0.1-0.3,0.2-0.5,0.3-0.6c0.1-0.2,0.2-0.4,0.3-0.6c0.8-1.9,1.7-3.8,2.6-5.7c1.8-3.9,3.8-7.8,5.9-11.5
		c1.8-3.2,3.7-6.4,5.8-9.4c0.9-1.4,1.9-2.8,2.9-4.2c0.1-0.1,0.2-0.2,0.2-0.3c1.4-1.7,2.8-3.4,4.3-5c7.4-8.4,16.9-16.5,26.5-19
		c0.2-0.1,1.7-0.3,2-0.4c0.6,0,1.3-0.1,1.9-0.1c0.3,0,1.1,0.1,1.5,0.1c0.5,0.1,1,0.3,1.5,0.4c0,0,0.1,0,0.1,0c0.1,0,0.2,0.1,0.3,0.1
		c0.3,0.1,1,0.6,1.3,0.8c0.3,0.3,0.6,0.6,1,1c0,0,0,0,0.1,0.1c0.2,0.4,0.5,0.7,0.7,1.1c0.1,0.2,0.5,1.1,0.7,1.5
		c0.2,0.6,0.4,1.2,0.6,1.9c0.2,0.8,0.4,1.7,0.5,2.6c-0.3-1.5,0.1,1.6,0.1,1.8c0.3,5.5-0.7,9.3-2.4,15c-2.8,9.3-7.8,17.9-12.9,26
		c-11.8,18.5-27,34.9-43.6,49.7c-5,4.5-10.2,8.8-15.5,12.8C662.9,203.6,662.9,201.8,663,199.9z"/>
	<path class="st0" d="M185.2,62.3c17.2,0,31.1-13.9,31.1-31.1c0-17.2-13.9-31.1-31.1-31.1c-17.2,0-31.1,13.9-31.1,31.1
		C154.1,48.3,168,62.3,185.2,62.3z"/>
	<path class="st0" d="M111.8,68.4H79.3c0-1.1,0-2.2,0-3.3V23c0,0,1.1-11.8-11.6-7.4c-12.6,4.4-41.6,12.8-41.6,12.8s-6.7,1-6.7,9.7
		c0,7.4,0.1,11.7,0.2,30.3H4.2c-2.3,0-4.2,1.9-4.2,4.2v42.5c0,2.3,1.9,4.2,4.2,4.2h15.6c0,22.6,0.1,52.5,0.1,92.6
		c0,0-3.8,75,91,38.1c0,0,4.8-2.6,5.1-6.7v-41.1c0,0,0.1-6.3-5.8-3.5c0,0-30.8,14.1-30.8-6.1c0-16.2,0-17,0-73.3h32.5
		c2.3,0,4.2-1.9,4.2-4.2V72.6C116,70.3,114.1,68.4,111.8,68.4z"/>
	<path class="st0" d="M345.3,68.4c-10.2,0-19.9,2.1-28.9,5.8v-1.8c0-2.3-1.9-4.2-4.2-4.2h-71.7c-2.3,0-4.2,1.9-4.2,4.2V115
		c0,2.3,1.9,4.2,4.2,4.2h13.6v165h-13.6c-2.3,0-4.2,1.9-4.2,4.2v42.5c0,2.3,1.9,4.2,4.2,4.2h89.2c2.3,0,4.2-1.9,4.2-4.2v-42.5
		c0-2.3-1.9-4.2-4.2-4.2h-13.3v-29.8c9,3.8,18.7,5.8,28.9,5.8c46.3,0,83.8-42.9,83.8-95.9S391.6,68.4,345.3,68.4z M346.3,210.5
		c-16.6-0.1-30-20.8-29.8-46.3c0.1-25.5,13.7-46.1,30.3-46c16.6,0.1,30,20.8,29.8,46.3C376.4,190,362.9,210.6,346.3,210.5z"/>
	<path class="st0" d="M681.5,312.5c-7,0-10.8,6-10.8,10.9c0,5,4.5,10.3,10.8,10.3c7.1,0,11-4.6,11-10.3
		C692.5,318.5,688.5,312.5,681.5,312.5z"/>
	<path class="st0" d="M723.6,320.6c-6.1-0.1-9.8-5-9.8-11.2c0-6.2,2.8-12.2,8.4-12.2c4.4,0,5.8,5.4,6,10h14v-21.5h-11.2l-1.6,4.6
		c-1.6-1.9-5.4-5.4-11.9-5.4c-12.2,0-23.4,7.5-23.4,24.4c0,17,12.2,25.4,26.2,25.4c10.3,0,18.9-4.9,23.3-9.7l-8.4-9.7
		C732,318.6,728.7,320.7,723.6,320.6z"/>
	<path class="st0" d="M771.6,284.5c-13.1,0-26,8.9-26.1,24.8c-0.2,16.9,13,25.2,26.6,25.2c14.5,0,26.2-9,26-24.9
		C797.8,293.8,786.6,284.7,771.6,284.5z M772.1,322.3c-4,0-7-5.1-7-13c0-7,2.9-12.5,6.6-12.5c4.5,0.1,7,5.6,7,12.8
		C778.6,316.8,776.2,322.3,772.1,322.3z"/>
	<path class="st0" d="M879.5,307.3c0-11.6-2.4-22.9-17.8-22.9c-6.6,0-11,3.5-14,6.9c-1.5-2.3-4.6-6.9-14.2-6.9c-6,0-10.4,5.1-11.9,7
		l-2.1-5.6h-18v12.6h4v22.5h-4v12.5h28.3v-12.5h-5.7v-17c0-3.9,1.2-5.7,4.3-5.7c3.8,0,4,3.1,4,10.9v24.3H857v-12.8h-5.7v-15.4
		c0-4.1,1-7,5-7c4.5,0,3.6,7.2,3.6,11.8v23.3h24.2v-12.9h-4.7V307.3z"/>
</g>
</svg>
